<svg xmlns:xlink="http://www.w3.org/1999/xlink" width="400" height="400" viewBox="0 0 200 220" fill="none" xmlns="http://www.w3.org/2000/svg" class="w-full h-auto max-w-[300px]"><defs/><g stroke="black" stroke-width="5" stroke-linecap="round"><line x1="100" y1="10" x2="100" y2="25"/><line x1="50" y1="20" x2="60" y2="35"/><line x1="150" y1="20" x2="140" y2="35"/><line x1="10" y1="70" x2="25" y2="75"/><line x1="190" y1="70" x2="175" y2="75"/><line x1="20" y1="120" x2="35" y2="115"/><line x1="180" y1="120" x2="165" y2="115"/></g><g transform="translate(0, 20)"><g transform="translate(19, 20) rotate(-15 50 50) scale(0.9)"><g><path d="M50,85 C70,85 85,72 85,55 C85,38 70,25 50,25 C30,25 15,38 15,55 C15,72 30,85 50,85 Z" fill="#FF5A5F" stroke="black" stroke-width="5" stroke-linecap="round" stroke-linejoin="round"/><path d="M38,30 Q50,18 62,30 Q65,35 60,38 Q50,42 40,38 Q35,35 38,30 Z" fill="#86EFAC" stroke="none"/><path d="M50,25 C50,25 52,15 56,18 C56,18 62,20 60,28 M50,25 C50,25 58,25 60,32 M50,25 C50,25 45,35 50,38 M50,25 C50,25 35,28 38,35 M50,25 C50,25 38,18 42,15" fill="none" stroke="black" stroke-width="5" stroke-linecap="round" stroke-linejoin="round"/></g></g><g transform="translate(81, 20) rotate(15 50 50) scale(0.9)"><g><path d="M50,85 C70,85 85,72 85,55 C85,38 70,25 50,25 C30,25 15,38 15,55 C15,72 30,85 50,85 Z" fill="#FF5A5F" stroke="black" stroke-width="5" stroke-linecap="round" stroke-linejoin="round"/><path d="M38,30 Q50,18 62,30 Q65,35 60,38 Q50,42 40,38 Q35,35 38,30 Z" fill="#86EFAC" stroke="none"/><path d="M50,25 C50,25 52,15 56,18 C56,18 62,20 60,28 M50,25 C50,25 58,25 60,32 M50,25 C50,25 45,35 50,38 M50,25 C50,25 35,28 38,35 M50,25 C50,25 38,18 42,15" fill="none" stroke="black" stroke-width="5" stroke-linecap="round" stroke-linejoin="round"/></g></g><g transform="translate(50, 35) scale(1.05)"><g><path d="M50,85 C70,85 85,72 85,55 C85,38 70,25 50,25 C30,25 15,38 15,55 C15,72 30,85 50,85 Z" fill="#FF5A5F" stroke="black" stroke-width="5" stroke-linecap="round" stroke-linejoin="round"/><path d="M38,30 Q50,18 62,30 Q65,35 60,38 Q50,42 40,38 Q35,35 38,30 Z" fill="#86EFAC" stroke="none"/><path d="M50,25 C50,25 52,15 56,18 C56,18 62,20 60,28 M50,25 C50,25 58,25 60,32 M50,25 C50,25 45,35 50,38 M50,25 C50,25 35,28 38,35 M50,25 C50,25 38,18 42,15" fill="none" stroke="black" stroke-width="5" stroke-linecap="round" stroke-linejoin="round"/><path d="M70,40 Q75,45 72,55" fill="none" stroke="black" stroke-width="4" stroke-linecap="round" opacity="0.6"/></g></g></g><text x="100" y="195" text-anchor="middle" font-family="'Outfit', sans-serif" font-weight="bold" font-size="28" fill="black" letter-spacing="-0.5">Three-Tomato</text></svg>